<?xml version="1.0" encoding="iso-8859-1"?>
<!-- Generator: Adobe Illustrator 16.0.0, SVG Export Plug-In . SVG Version: 6.00 Build 0)  -->
<!DOCTYPE svg PUBLIC "-//W3C//DTD SVG 1.1//EN" "http://www.w3.org/Graphics/SVG/1.1/DTD/svg11.dtd">
<svg version="1.1" id="Capa_1" xmlns="http://www.w3.org/2000/svg" xmlns:xlink="http://www.w3.org/1999/xlink" x="0px" y="0px"
	 width="38.115px" height="38.115px" viewBox="0 0 38.115 38.115" style="enable-background:new 0 0 38.115 38.115;"
	 xml:space="preserve">
<g>
	<g id="_x39_0_20_">
		<g>
			<path d="M7.354,25.329c0.113,0.078,0.253,0.137,0.438,0.137c5.17,0,10.34,0,15.511,0c0.436,0,0.893-0.412,0.709-0.801
				c-1.168-2.473-2.418-4.916-3.754-7.32c-0.779-1.404-2.517-5.756-4.866-5.797c-2.261-0.039-4.149,4.746-4.841,6.023
				c-1.257,2.322-2.401,4.701-3.468,7.094C6.947,24.974,7.103,25.206,7.354,25.329z"/>
			<path d="M21.645,18.729c1.095,2.023,2.158,4.093,3.148,6.191c0.069,0.146,0.092,0.301,0.069,0.455c1.901,0,3.807,0,5.709,0
				c0.377,0,0.772-0.355,0.612-0.693c-0.85-1.803-1.763-3.586-2.737-5.342c-0.591-1.062-2.353-4.371-3.624-4.256
				C23.793,15.179,22.413,17.38,21.645,18.729z"/>
			<path d="M22.033,13.747c1.572,0.084,2.71-1.34,2.788-2.787c-0.085-1.576-1.212-2.703-2.788-2.787
				c-1.572-0.086-2.709,1.338-2.787,2.787C19.161,12.533,20.585,13.669,22.033,13.747z"/>
			<path d="M0,4.074v0.947v0.947v22.882v1.775v3.416h38.115v-4.051v-1.141V5.968V4.386V4.073L0,4.074L0,4.074z M36.221,28.851H1.896
				V5.968h34.325V28.851z"/>
		</g>
	</g>
</g>
<g>
</g>
<g>
</g>
<g>
</g>
<g>
</g>
<g>
</g>
<g>
</g>
<g>
</g>
<g>
</g>
<g>
</g>
<g>
</g>
<g>
</g>
<g>
</g>
<g>
</g>
<g>
</g>
<g>
</g>
</svg>
